<?xml version="1.0" encoding="UTF-8"?>
<svg version="1.1" xmlns="http://www.w3.org/2000/svg" width="186" height="232" viewBox="0 0 186 232">
<g transform="translate(9.3 0) scale(0.9 1)">
<path d="M0 0 C0.71233953 0.00223072 1.42467905 0.00446144 2.15860462 0.00675976 C3.28588836 0.00441978 3.28588836 0.00441978 4.43594551 0.00203252 C6.97331948 -0.00198032 9.51063442 0.00121325 12.04800892 0.00434887 C13.85931909 0.00299496 15.67062899 0.00121508 17.48193836 -0.00096118 C22.41568006 -0.00553668 27.34940096 -0.00374548 32.28314304 -0.0005821 C37.43433916 0.00194091 42.58553344 -0.00039587 47.73672962 -0.00196826 C56.38899526 -0.00379014 65.04125238 -0.00138319 73.69351673 0.00337231 C83.7119973 0.00881496 93.73045753 0.00705232 103.74893761 0.00154591 C112.3340421 -0.00298473 120.91914045 -0.00363602 129.50424576 -0.00101542 C134.63900492 0.00054762 139.77375451 0.00074036 144.90851307 -0.00255191 C149.73470104 -0.00542991 154.56086266 -0.00345626 159.38704777 0.00234234 C161.16366628 0.00367033 162.94028699 0.00327518 164.71690464 0.00107968 C167.1315838 -0.00163033 169.54617711 0.00174745 171.96085072 0.00675976 C173.02936 0.00341368 173.02936 0.00341368 174.11945534 0 C178.94557781 0.01959354 178.94557781 0.01959354 180.05972767 1.13374341 C180.16525017 3.13968153 180.19940844 5.14938342 180.20689869 7.15808117 C180.21763165 9.12394932 180.21763165 9.12394932 180.22858143 11.12953198 C180.23142215 12.59602344 180.23413383 14.06251516 180.23672962 15.52900708 C180.2429918 17.06307136 180.24963838 18.59713411 180.25664234 20.13119519 C180.27773653 25.18802333 180.2880583 30.24485193 180.29800892 35.30171216 C180.30205624 37.04388774 180.30617315 38.78606316 180.310359 40.52823842 C180.32943231 48.72311028 180.34365174 56.91797308 180.35197097 65.11286288 C180.36171401 74.55403389 180.38794729 83.99496859 180.42847186 93.43605644 C180.45874153 100.74069551 180.47345059 108.04526737 180.47675198 115.3499679 C180.47909264 119.70779576 180.48792175 124.06537185 180.51321316 128.42313206 C180.53668545 132.53457645 180.5406512 136.64560687 180.53045177 140.75710118 C180.52996071 142.25575152 180.53615248 143.75442354 180.55000782 145.25300992 C180.71842603 164.57150166 174.81039336 180.88497445 161.34097767 194.95405591 C152.07492828 203.8075757 141.5164149 208.62503907 129.80972767 213.50874341 C122.54952355 216.57514124 115.49793227 219.84530151 108.47769642 223.42671216 C104.54028826 225.39316629 100.57149765 227.26220296 96.55972767 229.07124341 C95.9006139 229.37820141 95.24150013 229.68515942 94.56241322 230.00141919 C89.21954993 232.37253258 85.39178951 232.98593834 79.84683704 230.95967114 C78.71052845 230.41770092 77.57421986 229.87573071 76.40347767 229.31733716 C75.77928944 229.02319424 75.1551012 228.72905133 74.51199818 228.42599499 C72.52261117 227.48511852 70.54132345 226.5284016 68.55972767 225.57124341 C67.26073446 224.95498365 65.96125826 224.33974089 64.66129017 223.72554028 C57.14184203 220.15934184 49.68655137 216.47200925 42.26089954 212.71479809 C38.88920806 211.04952399 35.48863722 209.48986192 32.05972767 207.94624341 C24.00637121 204.24053228 17.26421596 199.50368471 11.05972767 193.13374341 C11.05972767 192.47374341 11.05972767 191.81374341 11.05972767 191.13374341 C10.39972767 191.13374341 9.73972767 191.13374341 9.05972767 191.13374341 C7.49143001 189.05983627 6.0747004 187.01113542 4.68472767 184.82124341 C4.27988148 184.18694409 3.87503529 183.55264477 3.45792103 182.89912426 C0.14341619 177.5568908 -2.18599264 172.17828225 -3.94027233 166.13374341 C-4.28072236 165.06610445 -4.62117239 163.9984655 -4.97193909 162.89847386 C-5.92723524 159.18442959 -6.18930967 156.12287136 -6.18751049 152.3003999 C-6.18992491 151.64992322 -6.19233932 150.99944654 -6.1948269 150.32925844 C-6.20042126 148.16974342 -6.19183374 146.01052986 -6.18319225 143.85102856 C-6.18426614 142.2949873 -6.1862064 140.73894644 -6.18894482 139.18290722 C-6.19377689 134.97260526 -6.18615974 130.76240988 -6.17599177 126.5521208 C-6.1671922 122.14568501 -6.16896903 117.73925236 -6.16935253 113.33280957 C-6.16841726 105.94042696 -6.15974866 98.54808552 -6.14608288 91.15571606 C-6.13032395 82.59923458 -6.12508604 74.04279804 -6.12581843 65.48630309 C-6.12642769 57.25779839 -6.12133381 49.02930837 -6.11302662 40.80080807 C-6.10948899 37.29602836 -6.1076627 33.79125385 -6.10713291 30.28647244 C-6.10613194 26.16770659 -6.10005567 22.0489788 -6.08996677 17.93022549 C-6.08703492 16.4148381 -6.08581778 14.89944633 -6.08639431 13.38405621 C-6.08688159 11.32439143 -6.08126342 9.26483483 -6.0739851 7.20518506 C-6.07230926 6.05005225 -6.07063341 4.89491944 -6.06890678 3.70478261 C-5.84506937 -0.7690947 -4.00333944 0.01625313 0 0 Z " fill="#F7F6F8" transform="translate(5.940272331237793,-0.13374340534210205)"/>
<path d="M0 0 C0.71233953 0.00223072 1.42467905 0.00446144 2.15860462 0.00675976 C3.28588836 0.00441978 3.28588836 0.00441978 4.43594551 0.00203252 C6.97331948 -0.00198032 9.51063442 0.00121325 12.04800892 0.00434887 C13.85931909 0.00299496 15.67062899 0.00121508 17.48193836 -0.00096118 C22.41568006 -0.00553668 27.34940096 -0.00374548 32.28314304 -0.0005821 C37.43433916 0.00194091 42.58553344 -0.00039587 47.73672962 -0.00196826 C56.38899526 -0.00379014 65.04125238 -0.00138319 73.69351673 0.00337231 C83.7119973 0.00881496 93.73045753 0.00705232 103.74893761 0.00154591 C112.3340421 -0.00298473 120.91914045 -0.00363602 129.50424576 -0.00101542 C134.63900492 0.00054762 139.77375451 0.00074036 144.90851307 -0.00255191 C149.73470104 -0.00542991 154.56086266 -0.00345626 159.38704777 0.00234234 C161.16366628 0.00367033 162.94028699 0.00327518 164.71690464 0.00107968 C167.1315838 -0.00163033 169.54617711 0.00174745 171.96085072 0.00675976 C173.02936 0.00341368 173.02936 0.00341368 174.11945534 0 C178.94557781 0.01959354 178.94557781 0.01959354 180.05972767 1.13374341 C180.16525017 3.13968153 180.19940844 5.14938342 180.20689869 7.15808117 C180.21763165 9.12394932 180.21763165 9.12394932 180.22858143 11.12953198 C180.23142215 12.59602344 180.23413383 14.06251516 180.23672962 15.52900708 C180.2429918 17.06307136 180.24963838 18.59713411 180.25664234 20.13119519 C180.27773653 25.18802333 180.2880583 30.24485193 180.29800892 35.30171216 C180.30205624 37.04388774 180.30617315 38.78606316 180.310359 40.52823842 C180.32943231 48.72311028 180.34365174 56.91797308 180.35197097 65.11286288 C180.36171401 74.55403389 180.38794729 83.99496859 180.42847186 93.43605644 C180.45874153 100.74069551 180.47345059 108.04526737 180.47675198 115.3499679 C180.47909264 119.70779576 180.48792175 124.06537185 180.51321316 128.42313206 C180.53668545 132.53457645 180.5406512 136.64560687 180.53045177 140.75710118 C180.52996071 142.25575152 180.53615248 143.75442354 180.55000782 145.25300992 C180.71842603 164.57150166 174.81039336 180.88497445 161.34097767 194.95405591 C152.07492828 203.8075757 141.5164149 208.62503907 129.80972767 213.50874341 C122.54952355 216.57514124 115.49793227 219.84530151 108.47769642 223.42671216 C104.54028826 225.39316629 100.57149765 227.26220296 96.55972767 229.07124341 C95.9006139 229.37820141 95.24150013 229.68515942 94.56241322 230.00141919 C89.21954993 232.37253258 85.39178951 232.98593834 79.84683704 230.95967114 C78.71052845 230.41770092 77.57421986 229.87573071 76.40347767 229.31733716 C75.77928944 229.02319424 75.1551012 228.72905133 74.51199818 228.42599499 C72.52261117 227.48511852 70.54132345 226.5284016 68.55972767 225.57124341 C67.26073446 224.95498365 65.96125826 224.33974089 64.66129017 223.72554028 C57.14184203 220.15934184 49.68655137 216.47200925 42.26089954 212.71479809 C38.88920806 211.04952399 35.48863722 209.48986192 32.05972767 207.94624341 C24.00637121 204.24053228 17.26421596 199.50368471 11.05972767 193.13374341 C11.05972767 192.47374341 11.05972767 191.81374341 11.05972767 191.13374341 C10.39972767 191.13374341 9.73972767 191.13374341 9.05972767 191.13374341 C7.49143001 189.05983627 6.0747004 187.01113542 4.68472767 184.82124341 C4.27988148 184.18694409 3.87503529 183.55264477 3.45792103 182.89912426 C0.14341619 177.5568908 -2.18599264 172.17828225 -3.94027233 166.13374341 C-4.28072236 165.06610445 -4.62117239 163.9984655 -4.97193909 162.89847386 C-5.92723524 159.18442959 -6.18930967 156.12287136 -6.18751049 152.3003999 C-6.18992491 151.64992322 -6.19233932 150.99944654 -6.1948269 150.32925844 C-6.20042126 148.16974342 -6.19183374 146.01052986 -6.18319225 143.85102856 C-6.18426614 142.2949873 -6.1862064 140.73894644 -6.18894482 139.18290722 C-6.19377689 134.97260526 -6.18615974 130.76240988 -6.17599177 126.5521208 C-6.1671922 122.14568501 -6.16896903 117.73925236 -6.16935253 113.33280957 C-6.16841726 105.94042696 -6.15974866 98.54808552 -6.14608288 91.15571606 C-6.13032395 82.59923458 -6.12508604 74.04279804 -6.12581843 65.48630309 C-6.12642769 57.25779839 -6.12133381 49.02930837 -6.11302662 40.80080807 C-6.10948899 37.29602836 -6.1076627 33.79125385 -6.10713291 30.28647244 C-6.10613194 26.16770659 -6.10005567 22.0489788 -6.08996677 17.93022549 C-6.08703492 16.4148381 -6.08581778 14.89944633 -6.08639431 13.38405621 C-6.08688159 11.32439143 -6.08126342 9.26483483 -6.0739851 7.20518506 C-6.07230926 6.05005225 -6.07063341 4.89491944 -6.06890678 3.70478261 C-5.84506937 -0.7690947 -4.00333944 0.01625313 0 0 Z M-2.94027233 2.13374341 C-3.02277233 27.56436841 -3.10527233 52.99499341 -3.19027233 79.19624341 C-3.22668835 87.20398022 -3.26310436 95.21171704 -3.30062389 103.46211255 C-3.31400776 110.68683294 -3.31400776 110.68683294 -3.32204723 117.91156018 C-3.32574983 121.1110156 -3.34064253 124.31020122 -3.36257458 127.50958264 C-3.39029174 131.60804409 -3.39818598 135.706121 -3.39256144 139.80466747 C-3.39373515 141.29790861 -3.40149979 142.79116512 -3.41713285 144.28432488 C-3.55818268 158.42926533 -1.41174226 171.44625248 7.05972767 183.13374341 C7.65785267 183.96389966 8.25597767 184.79405591 8.87222767 185.64936841 C16.31375942 195.43138192 23.76001513 202.09376598 35.26675892 206.59858716 C40.10011786 208.49364921 44.67610354 210.87499835 49.2906847 213.24336255 C52.63808642 214.9517965 55.99895221 216.56850946 59.44254017 218.07514966 C62.62010767 219.46688416 65.7240711 220.95081366 68.81363392 222.52827466 C70.00182728 223.12478833 70.00182728 223.12478833 71.21402454 223.73335278 C72.83051641 224.54749832 74.43991292 225.37587464 76.04214954 226.21772778 C81.65006628 228.99197836 84.94237927 229.63636033 91.05972767 228.13374341 C94.2798389 226.95023 94.2798389 226.95023 97.30972767 225.38374341 C101.62342359 223.29437505 105.93253033 221.31605383 110.37222767 219.50874341 C114.24957222 217.91337768 118.0056719 216.21947064 121.73160267 214.30171216 C124.99917506 212.66244345 128.30992717 211.11738733 131.62222767 209.57124341 C132.24782581 209.27814282 132.87342396 208.98504223 133.51797962 208.68305981 C137.66577776 206.75058153 141.8507275 204.92875818 146.05972767 203.13374341 C147.39986264 202.48085714 148.73714295 201.82148746 150.05972767 201.13374341 C150.05972767 200.47374341 150.05972767 199.81374341 150.05972767 199.13374341 C150.74035267 198.94811841 151.42097767 198.76249341 152.12222767 198.57124341 C163.01212722 193.24214363 170.2069858 180.05177265 174.15069675 169.10566533 C176.96442615 160.04588097 177.61194015 151.61946396 177.51382923 142.22407544 C177.51260044 140.66045114 177.51314372 139.09682464 177.51529026 137.53320134 C177.51618397 133.39010375 177.49320048 129.24747934 177.46484852 125.10449231 C177.44186876 121.20008559 177.44098531 117.29578714 177.43814564 113.39131176 C177.41725431 102.01372763 177.36140921 90.63622934 177.30972767 79.25874341 C177.22722767 53.80749341 177.14472767 28.35624341 177.05972767 2.13374341 C117.65972767 2.13374341 58.25972767 2.13374341 -2.94027233 2.13374341 Z " fill="#06065B" transform="translate(5.940272331237793,-0.13374340534210205)"/>
<path d="M0 0 C0.66 0.66 1.32 1.32 2 2 C2.33 1.34 2.66 0.68 3 0 C5.72944676 -0.93552563 8.24059823 -1.11938941 11.109375 -1.09765625 C11.86347656 -1.09443359 12.61757813 -1.09121094 13.39453125 -1.08789062 C14.17183594 -1.07951172 14.94914062 -1.07113281 15.75 -1.0625 C16.54277344 -1.05798828 17.33554687 -1.05347656 18.15234375 -1.04882812 C20.10159508 -1.03708565 22.05080738 -1.01915146 24 -1 C24.125 1.875 24.125 1.875 24 5 C23.34 5.66 22.68 6.32 22 7 C21.70703857 9.5083592 21.70703857 9.5083592 21.77294922 12.45947266 C21.77317581 14.17102036 21.77317581 14.17102036 21.77340698 15.91714478 C21.78372955 17.15362762 21.79405212 18.39011047 21.8046875 19.6640625 C21.80893234 21.5575795 21.80893234 21.5575795 21.81326294 23.48934937 C21.82257869 26.84646944 21.84055165 30.20331912 21.8626709 33.56036377 C21.8831245 36.98553122 21.8922636 40.41072659 21.90234375 43.8359375 C21.92443542 50.55736671 21.95793623 57.27866773 22 64 C24.41619823 64.25030977 24.41619823 64.25030977 27 64 C27.66 63.01 28.32 62.02 29 61 C29.66 61 30.32 61 31 61 C31 56.05 31 51.1 31 46 C32.65 46 34.3 46 36 46 C36 54.58 36 63.16 36 72 C26.43 72 16.86 72 7 72 C7 67 7 67 9 65 C9.2931498 62.41029515 9.2931498 62.41029515 9.22705078 59.35693359 C9.22689972 58.17586029 9.22674866 56.99478699 9.22659302 55.77792358 C9.21627045 54.49769318 9.20594788 53.21746277 9.1953125 51.8984375 C9.19106766 49.93833237 9.19106766 49.93833237 9.18673706 47.93862915 C9.17909776 44.46317919 9.1594469 40.98789617 9.1373291 37.51251221 C9.11687696 33.96669778 9.10773671 30.4208564 9.09765625 26.875 C9.07620116 19.91659805 9.04206173 12.95830704 9 6 C8.34 5.67 7.68 5.34 7 5 C7 10.94 7 16.88 7 23 C5.68 23 4.36 23 3 23 C2.87882812 22.34773438 2.75765625 21.69546875 2.6328125 21.0234375 C1.71056011 16.21353658 0.69832723 11.60974535 -1 7 C-2.99954746 6.95745644 -5.00041636 6.95919217 -7 7 C-8.91573701 8.91573701 -8.39138278 12.00184892 -8.5 14.5625 C-8.4791843 19.68836689 -8.24768386 22.66600038 -4.75 26.5 C-3.51010499 27.6774003 -2.2608793 28.84509978 -1 30 C4.92814968 38.06887039 7.12329806 45.54920892 7.3125 55.4375 C7.34988281 56.71496094 7.38726562 57.99242187 7.42578125 59.30859375 C6.92860111 63.6190087 5.68411049 65.63881659 3 69 C2.5153125 69.61359375 2.030625 70.2271875 1.53125 70.859375 C-0.55059311 72.41013568 -1.93123566 72.33562548 -4.5 72.25 C-5.2734375 72.23453125 -6.046875 72.2190625 -6.84375 72.203125 C-9 72 -9 72 -12 71 C-12.99 71 -13.98 71 -15 71 C-15 63.74 -15 56.48 -15 49 C-14.01 49 -13.02 49 -12 49 C-11.71125 50.216875 -11.4225 51.43375 -11.125 52.6875 C-10.50829236 55.18076089 -9.83246011 57.41884973 -8.875 59.8125 C-8 62 -8 62 -8 65 C-6.0509375 64.7834375 -6.0509375 64.7834375 -4.0625 64.5625 C-3.33160156 64.48128906 -2.60070312 64.40007812 -1.84765625 64.31640625 C0.01140229 64.18113386 0.01140229 64.18113386 1 63 C2.05989228 58.59802802 2.30915212 54.24734695 -0.03564453 50.22216797 C-1.84436183 47.71338889 -3.77838688 45.35584034 -5.82324219 43.03637695 C-12.21099079 35.7863034 -15.45306549 27.07496514 -15.1875 17.33203125 C-14.64430756 10.57607523 -13.26417122 5.33021403 -9 0 C-5.88135455 -1.55932272 -3.33704665 -0.65549131 0 0 Z " fill="#FF770F" transform="translate(27,76)"/>
<path d="M0 0 C16.5 0 33 0 50 0 C50 7.92 50 15.84 50 24 C48.02 24 46.04 24 44 24 C43.93941406 23.24074219 43.87882812 22.48148438 43.81640625 21.69921875 C43.73261719 20.70535156 43.64882812 19.71148437 43.5625 18.6875 C43.48128906 17.70136719 43.40007812 16.71523437 43.31640625 15.69921875 C43.08187441 12.90624401 43.08187441 12.90624401 42 10 C38.28570866 8.08979302 35.25461723 7.70910287 31 7 C31.33 26.14 31.66 45.28 32 65 C34.64 65.99 37.28 66.98 40 68 C40 69.65 40 71.3 40 73 C30.1 73 20.2 73 10 73 C10.33 71.35 10.66 69.7 11 68 C13.31 67.01 15.62 66.02 18 65 C18.33 45.86 18.66 26.72 19 7 C11.53693963 7.22825302 11.53693963 7.22825302 8.5625 9.9375 C6.38743707 14.20062335 6.18378809 18.26745667 6 23 C4.02 23 2.04 23 0 23 C0 15.41 0 7.82 0 0 Z " fill="#FF780F" transform="translate(128,75)"/>
<path d="M0 0 C0.66 0 1.32 0 2 0 C2 7.26 2 14.52 2 22 C3.32 22.33 4.64 22.66 6 23 C6.144375 22.030625 6.28875 21.06125 6.4375 20.0625 C7 17 7 17 8 16 C6.68 15.67 5.36 15.34 4 15 C4.33 11.37 4.66 7.74 5 4 C11.76555613 2.73709619 18.12097485 1.87020707 25 2 C25.33 1.67 25.66 1.34 26 1 C31.2251408 0.23534525 33.95510003 1.90811267 38.0703125 4.80859375 C40.05739661 6.03543718 41.72021535 6.55924163 44 7 C44 7.66 44 8.32 44 9 C36.25 8.25 36.25 8.25 34 6 C33.505 5.01 33.505 5.01 33 4 C32.34 4 31.68 4 31 4 C30.67 4.66 30.34 5.32 30 6 C29.34 5.67 28.68 5.34 28 5 C28 5.99 28 6.98 28 8 C29.13888672 8.05607422 29.13888672 8.05607422 30.30078125 8.11328125 C31.29464844 8.17902344 32.28851563 8.24476562 33.3125 8.3125 C34.29863281 8.37050781 35.28476563 8.42851562 36.30078125 8.48828125 C39 9 39 9 40.83984375 10.1484375 C42.55714691 12.88918396 42.32389914 15.10897212 42.25 18.3125 C42.23453125 19.42238281 42.2190625 20.53226563 42.203125 21.67578125 C42.00913862 24.85044298 41.53559968 27.86846959 41 31 C41 32.32 41 33.64 41 35 C40.67 36.32 40.34 37.64 40 39 C35.38 39 30.76 39 26 39 C26 38.34 26 37.68 26 37 C27.32 37 28.64 37 30 37 C29.690625 36.0925 29.38125 35.185 29.0625 34.25 C28.27169247 31.83105932 27.59553894 29.46799921 27 27 C25.34579778 27.53739056 23.70166705 28.10586008 22.0625 28.6875 C21.14597656 29.00074219 20.22945312 29.31398438 19.28515625 29.63671875 C16.76223162 30.79548168 16.76223162 30.79548168 16.24609375 33.45703125 C16.16488281 34.29621094 16.08367187 35.13539062 16 36 C15.67 36.99 15.34 37.98 15 39 C12.69 39 10.38 39 8 39 C8 38.34 8 37.68 8 37 C8.99 37 9.98 37 11 37 C11 35.02 11 33.04 11 31 C10.071875 31.061875 9.14375 31.12375 8.1875 31.1875 C5 31 5 31 3.125 29.6875 C2 28 2 28 2 25 C1.34 25 0.68 25 0 25 C0 26.98 0 28.96 0 31 C0.66 31 1.32 31 2 31 C1.67 32.32 1.34 33.64 1 35 C-0.32 34.67 -1.64 34.34 -3 34 C-3.08802152 30.0209757 -3.14073233 26.04220612 -3.1875 22.0625 C-3.21263672 20.94552734 -3.23777344 19.82855469 -3.26367188 18.67773438 C-3.32455582 11.75725875 -2.59692408 6.42755749 0 0 Z " fill="#FF760C" transform="translate(74,10)"/>
<path d="M0 0 C7.59 0 15.18 0 23 0 C23 1.32 23 2.64 23 4 C21.02 4.99 21.02 4.99 19 6 C19 25.14 19 44.28 19 64 C20.65 64.66 22.3 65.32 24 66 C24 67.65 24 69.3 24 71 C16.41 71 8.82 71 1 71 C1 69.68 1 68.36 1 67 C1.99 67 2.98 67 4 67 C4 66.34 4 65.68 4 65 C4.99 64.505 4.99 64.505 6 64 C6 45.19 6 26.38 6 7 C4.02 6.01 2.04 5.02 0 4 C0 2.68 0 1.36 0 0 Z " fill="#FF770E" transform="translate(97,76)"/>
<path d="M0 0 C7.92 0 15.84 0 24 0 C24 1.65 24 3.3 24 5 C22.02 5.66 20.04 6.32 18 7 C17.9537045 14.26692328 17.91814507 21.53381488 17.89637566 28.80085564 C17.88592858 32.17506994 17.87175275 35.54918352 17.84912109 38.92333984 C17.82495115 42.80048318 17.81353489 46.67748277 17.8046875 50.5546875 C17.79436493 51.76929657 17.78404236 52.98390564 17.77340698 54.23532104 C17.77325592 55.35633209 17.77310486 56.47734314 17.77294922 57.63232422 C17.76628738 59.11791336 17.76628738 59.11791336 17.75949097 60.6335144 C17.7673343 63.18865903 17.7673343 63.18865903 20 65 C22.06874034 65.6425235 22.06874034 65.6425235 24 66 C24 67.65 24 69.3 24 71 C16.08 71 8.16 71 0 71 C0 69.35 0 67.7 0 66 C0.804375 65.690625 1.60875 65.38125 2.4375 65.0625 C4.89080405 64.23664655 4.89080405 64.23664655 6 63 C6.09365006 61.2507128 6.11744438 59.49763746 6.11352539 57.74584961 C6.11344986 56.62476303 6.11337433 55.50367645 6.11329651 54.34861755 C6.10813522 53.1288472 6.10297394 51.90907684 6.09765625 50.65234375 C6.09553383 48.7899984 6.09553383 48.7899984 6.09336853 46.89002991 C6.08870591 43.58394509 6.07971497 40.27792854 6.06866455 36.97186279 C6.05844827 33.6003885 6.05387045 30.22890717 6.04882812 26.85742188 C6.03777395 20.23826225 6.02101736 13.61913507 6 7 C4.02 6.34 2.04 5.68 0 5 C0 3.35 0 1.7 0 0 Z " fill="#FF7409" transform="translate(65,76)"/>
<path d="M0 0 C7.26 0 14.52 0 22 0 C22 11.22 22 22.44 22 34 C18.926875 35.464375 15.85375 36.92875 12.6875 38.4375 C11.72287842 38.89825928 10.75825684 39.35901855 9.7644043 39.83374023 C8.61838745 40.37816772 8.61838745 40.37816772 7.44921875 40.93359375 C6.66893311 41.30540771 5.88864746 41.67722168 5.0847168 42.06030273 C3 43 3 43 0 44 C0 29.48 0 14.96 0 0 Z " fill="#00007A" transform="translate(96,178)"/>
<path d="M0 0 C6.93 0 13.86 0 21 0 C21 13.86 21 27.72 21 42 C16.28097425 41.21349571 13.09396165 40.39121049 8.8125 38.5625 C7.78769531 38.13066406 6.76289062 37.69882813 5.70703125 37.25390625 C3 36 3 36 0 34 C-0.26697888 31.37537756 -0.34832984 28.98934067 -0.29296875 26.3671875 C-0.28872391 25.61535187 -0.28447906 24.86351624 -0.28010559 24.08889771 C-0.2632917 21.68390315 -0.22563624 19.27974191 -0.1875 16.875 C-0.17245659 15.24610584 -0.15876758 13.61719856 -0.14648438 11.98828125 C-0.11592876 7.991607 -0.05721735 3.99673784 0 0 Z " fill="#02027A" transform="translate(68,179)"/>
<path d="M0 0 C1.64644273 2.99987447 2.49305372 5.79637724 3.25 9.125 C7.05626373 23.3842865 17.93058749 35.87791891 30 44 C32.85138404 45.41181185 35.70903905 46.57057714 38.6875 47.6875 C43.31923523 49.52271585 47.70006133 51.78641738 52.12963867 54.05883789 C55.51338894 55.78547019 58.90976913 57.42246181 62.390625 58.9453125 C65.56565706 60.33564161 68.66690834 61.81838651 71.75390625 63.39453125 C72.94209961 63.99104492 72.94209961 63.99104492 74.15429688 64.59960938 C75.77078874 65.41375491 77.38018525 66.24213123 78.98242188 67.08398438 C84.59033862 69.85823495 87.8826516 70.50261692 94 69 C97.22011123 67.8164866 97.22011123 67.8164866 100.25 66.25 C104.56369592 64.16063164 108.87280266 62.18231042 113.3125 60.375 C117.18984455 58.77963428 120.94594423 57.08572723 124.671875 55.16796875 C127.9394474 53.52870005 131.2501995 51.98364393 134.5625 50.4375 C135.18809814 50.14439941 135.81369629 49.85129883 136.45825195 49.54931641 C148.64670847 43.87065831 148.64670847 43.87065831 153 43 C153 42.34 153 41.68 153 41 C154.43359375 39.87890625 154.43359375 39.87890625 156.4375 38.5625 C169.66106502 28.92617868 175.06795788 15.24490073 179 0 C181.28361335 3.42542003 181.10287911 4.87593033 180.46875 8.83203125 C177.1239718 24.30163043 165.88622632 37.35445014 153 46 C146.46758134 49.59637401 139.62442973 52.50717911 132.75 55.375 C125.48979589 58.44139784 118.43820461 61.7115581 111.41796875 65.29296875 C107.48056059 67.25942288 103.51176999 69.12845956 99.5 70.9375 C98.51132935 71.39793701 98.51132935 71.39793701 97.50268555 71.86767578 C92.15982226 74.23878917 88.33206184 74.85219494 82.78710938 72.82592773 C81.65080078 72.28395752 80.51449219 71.7419873 79.34375 71.18359375 C78.40746765 70.74237938 78.40746765 70.74237938 77.45227051 70.29225159 C75.4628835 69.35137511 73.48159578 68.3946582 71.5 67.4375 C70.20100679 66.82124024 68.9015306 66.20599749 67.6015625 65.59179688 C60.08211436 62.02559844 52.6268237 58.33826585 45.20117188 54.58105469 C41.82948039 52.91578058 38.42890955 51.35611852 35 49.8125 C26.94664354 46.10678888 20.20448829 41.36994131 14 35 C14 34.34 14 33.68 14 33 C13.34 33 12.68 33 12 33 C10.41799612 30.86264371 8.97463534 28.74628173 7.5625 26.5 C7.15652588 25.85506592 6.75055176 25.21013184 6.33227539 24.5456543 C1.21885491 16.2744651 -0.48796778 9.83164706 0 0 Z " fill="#12127A" transform="translate(3,158)"/>
<path d="M0 0 C7.26 0 14.52 0 22 0 C22 10.23 22 20.46 22 31 C11.87309645 28.74957699 11.87309645 28.74957699 7.625 26 C6.81289063 25.484375 6.00078125 24.96875 5.1640625 24.4375 C3.44159827 23.29333604 1.7205533 22.14703554 0 21 C-0.34057617 18.84521484 -0.34057617 18.84521484 -0.29296875 16.2109375 C-0.28547607 15.36321777 -0.2779834 14.51549805 -0.27026367 13.64208984 C-0.24295166 12.5639502 -0.21563965 11.48581055 -0.1875 10.375 C-0.125625 6.95125 -0.06375 3.5275 0 0 Z " fill="#0C0C7E" transform="translate(39,178)"/>
<path d="M0 0 C7.26 0 14.52 0 22 0 C23.19493123 19.35788592 23.19493123 19.35788592 20.08984375 23.625 C17.41560427 25.21218387 14.98873031 26.15319308 12 27 C10.7315625 27.48726562 10.7315625 27.48726562 9.4375 27.984375 C6.13487174 29.2228606 3.54521472 30 0 30 C0 20.1 0 10.2 0 0 Z " fill="#09097D" transform="translate(124,178)"/>
<path d="M0 0 C0.99 0.33 1.98 0.66 3 1 C3.04629168 8.65807215 3.08185303 16.31612984 3.10362434 23.97430992 C3.11407224 27.53012399 3.12824959 31.0858425 3.15087891 34.64160156 C3.17671832 38.727223 3.18646444 42.81274369 3.1953125 46.8984375 C3.20563507 48.17866791 3.21595764 49.45889832 3.22659302 50.77792358 C3.22674408 51.95899689 3.22689514 53.14007019 3.22705078 54.35693359 C3.231492 55.40062103 3.23593323 56.44430847 3.24050903 57.5196228 C3 60 3 60 1 62 C0.35232207 64.57061311 0.35232207 64.57061311 0 67 C-0.66 66.01 -1.32 65.02 -2 64 C-2.99 64.99 -3.98 65.98 -5 67 C-5.66 66.67 -6.32 66.34 -7 66 C-6.38125 65.4225 -5.7625 64.845 -5.125 64.25 C-0.16775848 59.00115604 -0.58861306 53.6939377 -0.74609375 46.765625 C-1.06515083 42.03376305 -2.03874066 38.28602795 -4 34 C-4.2784375 33.31550781 -4.556875 32.63101563 -4.84375 31.92578125 C-6.94013913 27.18179723 -9.7069836 23.94860183 -13.51171875 20.4453125 C-15.83261426 18.19142447 -15.99430078 17.1081527 -16.16796875 13.8125 C-16.17441406 12.554375 -16.18085938 11.29625 -16.1875 10 C-16.20167969 8.741875 -16.21585938 7.48375 -16.23046875 6.1875 C-16 3 -16 3 -14 1 C-11.125 0.875 -11.125 0.875 -8 2 C-4.0091313 6.9034149 -3.56434387 11.9008142 -4 18 C-2.68 18 -1.36 18 0 18 C0 12.06 0 6.12 0 0 Z " fill="#FFF9F5" transform="translate(34,81)"/>
<path d="M0 0 C0.99 0.33 1.98 0.66 3 1 C3.02333408 21.56609765 3.04098169 42.13219313 3.05181217 62.69830132 C3.05697404 72.24695146 3.06401468 81.7955934 3.07543945 91.34423828 C3.0853896 99.66436427 3.09185422 107.98448432 3.09408849 116.30461609 C3.09539504 120.71227957 3.09847734 125.11992604 3.10573006 129.52758408 C3.11249548 133.67251461 3.11461589 137.81742104 3.11310768 141.96235657 C3.11338377 143.48699703 3.11538581 145.01163826 3.11920547 146.53627396 C3.12415086 148.61127931 3.12299514 150.68619264 3.12025452 152.76119995 C3.12117631 153.9245027 3.1220981 155.08780544 3.12304783 156.28635979 C3 159 3 159 2 161 C1.34 161 0.68 161 0 161 C0 107.87 0 54.74 0 0 Z " fill="#01014A" transform="translate(183,0)"/>
<path d="M0 0 C7.59 0 15.18 0 23 0 C23.020625 2.784375 23.04125 5.56875 23.0625 8.4375 C23.071604 9.31591553 23.08070801 10.19433105 23.09008789 11.09936523 C23.09723091 13.06645974 23.05031893 15.03353621 23 17 C22 18 22 18 19.86694336 18.11352539 C18.95050049 18.10828857 18.03405762 18.10305176 17.08984375 18.09765625 C16.10048828 18.09443359 15.11113281 18.09121094 14.09179688 18.08789062 C13.05087891 18.07951172 12.00996094 18.07113281 10.9375 18.0625 C9.89271484 18.05798828 8.84792969 18.05347656 7.77148438 18.04882812 C5.18096546 18.03699927 2.59047578 18.01906319 0 18 C0 12.06 0 6.12 0 0 Z " fill="#171784" transform="translate(11,8)"/>
<path d="M0 0 C7.59 0 15.18 0 23 0 C23 5.61 23 11.22 23 17 C15.41 17 7.82 17 0 17 C0 11.39 0 5.78 0 0 Z " fill="#00007A" transform="translate(95,154)"/>
<path d="M0 0 C7.59 0 15.18 0 23 0 C23 5.61 23 11.22 23 17 C15.41 17 7.82 17 0 17 C0 11.39 0 5.78 0 0 Z " fill="#141481" transform="translate(124,31)"/>
<path d="M0 0 C7.59 0 15.18 0 23 0 C23 5.61 23 11.22 23 17 C15.41 17 7.82 17 0 17 C0 11.39 0 5.78 0 0 Z " fill="#131381" transform="translate(11,31)"/>
<path d="M0 0 C0.91644287 0.00523682 1.83288574 0.01047363 2.77709961 0.01586914 C3.76645508 0.0190918 4.75581055 0.02231445 5.77514648 0.02563477 C6.81606445 0.03401367 7.85698242 0.04239258 8.92944336 0.05102539 C10.49662109 0.05779297 10.49662109 0.05779297 12.09545898 0.06469727 C14.6859779 0.07652612 17.27646758 0.0944622 19.86694336 0.11352539 C19.86694336 5.72352539 19.86694336 11.33352539 19.86694336 17.11352539 C12.27694336 17.11352539 4.68694336 17.11352539 -3.13305664 17.11352539 C-3.15368164 14.49415039 -3.17430664 11.87477539 -3.19555664 9.17602539 C-3.20466064 8.34981689 -3.21376465 7.5236084 -3.22314453 6.67236328 C-3.23029609 4.8191878 -3.18334184 2.96603231 -3.13305664 1.11352539 C-2.13305664 0.11352539 -2.13305664 0.11352539 0 0 Z " fill="#131381" transform="translate(98.133056640625,52.886474609375)"/>
<path d="M0 0 C3.64588169 -0.02682987 7.29156846 -0.04675569 10.9375 -0.0625 C12.49887695 -0.07506836 12.49887695 -0.07506836 14.09179688 -0.08789062 C15.57583008 -0.09272461 15.57583008 -0.09272461 17.08984375 -0.09765625 C18.46450806 -0.10551147 18.46450806 -0.10551147 19.86694336 -0.11352539 C22 0 22 0 23 1 C23.07325436 3.6986905 23.09222351 6.36502556 23.0625 9.0625 C23.041875 11.681875 23.02125 14.30125 23 17 C15.41 17 7.82 17 0 17 C0 11.39 0 5.78 0 0 Z " fill="#131381" transform="translate(39,53)"/>
<path d="M0 0 C7.26 0 14.52 0 22 0 C22 5.61 22 11.22 22 17 C14.74 17 7.48 17 0 17 C0 11.39 0 5.78 0 0 Z " fill="#00007B" transform="translate(39,154)"/>
<path d="M0 0 C7.26 0 14.52 0 22 0 C22 5.61 22 11.22 22 17 C14.74 17 7.48 17 0 17 C0 11.39 0 5.78 0 0 Z " fill="#0D0D7E" transform="translate(153,53)"/>
<path d="M0 0 C7.26 0 14.52 0 22 0 C22 5.61 22 11.22 22 17 C14.74 17 7.48 17 0 17 C0 11.39 0 5.78 0 0 Z " fill="#0D0D7E" transform="translate(124,53)"/>
<path d="M0 0 C7.26 0 14.52 0 22 0 C22 5.61 22 11.22 22 17 C14.74 17 7.48 17 0 17 C0 11.39 0 5.78 0 0 Z " fill="#0D0D7D" transform="translate(153,31)"/>
<path d="M0 0 C7.26 0 14.52 0 22 0 C22 5.61 22 11.22 22 17 C14.74 17 7.48 17 0 17 C0 11.39 0 5.78 0 0 Z " fill="#00007B" transform="translate(39,31)"/>
<path d="M0 0 C7.26 0 14.52 0 22 0 C22 5.61 22 11.22 22 17 C14.74 17 7.48 17 0 17 C0 11.39 0 5.78 0 0 Z " fill="#0B0B7D" transform="translate(153,8)"/>
<path d="M0 0 C7.26 0 14.52 0 22 0 C22 5.61 22 11.22 22 17 C14.74 17 7.48 17 0 17 C0 11.39 0 5.78 0 0 Z " fill="#0B0B7D" transform="translate(124,8)"/>
<path d="M0 0 C7.26 0 14.52 0 22 0 C22 11 22 11 20 16 C19 17 19 17 17.14233398 17.11352539 C16.35157471 17.10828857 15.56081543 17.10305176 14.74609375 17.09765625 C13.89208984 17.09443359 13.03808594 17.09121094 12.15820312 17.08789062 C11.26037109 17.07951172 10.36253906 17.07113281 9.4375 17.0625 C8.53580078 17.05798828 7.63410156 17.05347656 6.70507812 17.04882812 C4.47002411 17.03700244 2.23500398 17.01906638 0 17 C0 11.39 0 5.78 0 0 Z " fill="#0D0D7F" transform="translate(153,154)"/>
<path d="M0 0 C6.93 0 13.86 0 21 0 C21 5.61 21 11.22 21 17 C14.07 17 7.14 17 0 17 C0 11.39 0 5.78 0 0 Z " fill="#0C0C7E" transform="translate(68,53)"/>
<path d="M0 0 C6.93 0 13.86 0 21 0 C21 5.61 21 11.22 21 17 C14.07 17 7.14 17 0 17 C0 11.39 0 5.78 0 0 Z " fill="#0A0A7C" transform="translate(40,8)"/>
<path d="M0 0 C7.26 0 14.52 0 22 0 C22 5.28 22 10.56 22 16 C14.74 16 7.48 16 0 16 C0 10.72 0 5.44 0 0 Z " fill="#00007B" transform="translate(124,155)"/>
<path d="M0 0 C6.93 0 13.86 0 21 0 C21 5.28 21 10.56 21 16 C14.07 16 7.14 16 0 16 C0 10.72 0 5.44 0 0 Z " fill="#05057A" transform="translate(68,155)"/>
<path d="M0 0 C6.93 0 13.86 0 21 0 C21 5.28 21 10.56 21 16 C14.07 16 7.14 16 0 16 C0 10.72 0 5.44 0 0 Z " fill="#020279" transform="translate(12,54)"/>
<path d="M0 0 C6.93 0 13.86 0 21 0 C21 5.28 21 10.56 21 16 C14.73 16 8.46 16 2 16 C-0.78152091 10.43695818 -0.13468529 6.19552319 0 0 Z " fill="#03037A" transform="translate(12,155)"/>
<path d="M0 0 C3.375 0.875 3.375 0.875 5.375 2.875 C5.705 2.215 6.035 1.555 6.375 0.875 C9.10444676 -0.06052563 11.61559823 -0.24438941 14.484375 -0.22265625 C15.23847656 -0.21943359 15.99257813 -0.21621094 16.76953125 -0.21289062 C17.54683594 -0.20451172 18.32414062 -0.19613281 19.125 -0.1875 C19.91777344 -0.18298828 20.71054687 -0.17847656 21.52734375 -0.17382812 C23.47659508 -0.16208565 25.42580738 -0.14415146 27.375 -0.125 C27.375 0.205 27.375 0.535 27.375 0.875 C22.095 0.875 16.815 0.875 11.375 0.875 C11.045 8.465 10.715 16.055 10.375 23.875 C9.055 23.875 7.735 23.875 6.375 23.875 C6.25382812 23.22273438 6.13265625 22.57046875 6.0078125 21.8984375 C5.08556011 17.08853658 4.07332723 12.48474535 2.375 7.875 C0.91676788 7.8479957 -0.54160675 7.82860213 -2 7.8125 C-3.21816406 7.79509766 -3.21816406 7.79509766 -4.4609375 7.77734375 C-6.67437142 7.73033666 -6.67437142 7.73033666 -8.625 8.875 C-8.28833088 5.84497794 -7.7344656 4.03498818 -6 1.5 C-3.625 -0.125 -3.625 -0.125 0 0 Z " fill="#FF8123" transform="translate(23.625,75.125)"/>
<path d="M0 0 C4.09052686 0.44623929 6.2010624 1.85293254 9.5078125 4.18359375 C11.49489661 5.41043718 13.15771535 5.93424163 15.4375 6.375 C15.4375 7.035 15.4375 7.695 15.4375 8.375 C7.6875 7.625 7.6875 7.625 5.4375 5.375 C5.1075 4.715 4.7775 4.055 4.4375 3.375 C3.7775 3.375 3.1175 3.375 2.4375 3.375 C2.1075 4.035 1.7775 4.695 1.4375 5.375 C0.7775 5.045 0.1175 4.715 -0.5625 4.375 C-0.5625 5.365 -0.5625 6.355 -0.5625 7.375 C0.19675781 7.41238281 0.95601562 7.44976563 1.73828125 7.48828125 C2.73214844 7.55402344 3.72601563 7.61976562 4.75 7.6875 C5.73613281 7.74550781 6.72226563 7.80351562 7.73828125 7.86328125 C10.4375 8.375 10.4375 8.375 12.3125 9.6875 C13.4375 11.375 13.4375 11.375 13.125 15.0625 C12.898125 16.155625 12.67125 17.24875 12.4375 18.375 C12.1075 17.055 11.7775 15.735 11.4375 14.375 C10.695 14.54 9.9525 14.705 9.1875 14.875 C3.93340599 15.57554587 -1.27001749 15.45207499 -6.5625 15.375 C-6.2325 13.065 -5.9025 10.755 -5.5625 8.375 C-4.9025 8.375 -4.2425 8.375 -3.5625 8.375 C-3.5625 6.725 -3.5625 5.075 -3.5625 3.375 C-5.2125 3.705 -6.8625 4.035 -8.5625 4.375 C-8.8925 3.385 -9.2225 2.395 -9.5625 1.375 C-8.1084375 1.4059375 -8.1084375 1.4059375 -6.625 1.4375 C-3.18783324 1.36735374 -3.22832776 0.47243821 0 0 Z " fill="#FF8430" transform="translate(102.5625,10.625)"/>
<path d="M0 0 C5.61 0 11.22 0 17 0 C17 5.94 17 11.88 17 18 C12.08293037 16.03317215 10.68749344 14.96111784 7.375 11.125 C6.61960937 10.26132813 5.86421875 9.39765625 5.0859375 8.5078125 C0 2.39325843 0 2.39325843 0 0 Z " fill="#1B1B84" transform="translate(17,178)"/>
<path d="M0 0 C4.95 0 9.9 0 15 0 C13.93619193 5.31904034 12.20375909 7.50606741 8.625 11.25 C8.13 11.79140625 7.635 12.3328125 7.125 12.890625 C4.79109882 15.38677599 3.28920836 16.90359721 0 18 C0 12.06 0 6.12 0 0 Z " fill="#12127F" transform="translate(153,178)"/>
<path d="M0 0 C7.26 0 14.52 0 22 0 C22 11.22 22 22.44 22 34 C21.67 34 21.34 34 21 34 C21 23.44 21 12.88 21 2 C14.73 2 8.46 2 2 2 C2 14.87 2 27.74 2 41 C2.66 41.33 3.32 41.66 4 42 C2.68 42.66 1.36 43.32 0 44 C0 29.48 0 14.96 0 0 Z " fill="#2E2E8A" transform="translate(96,178)"/>
<path d="M0 0 C7.26 0 14.52 0 22 0 C22 5.61 22 11.22 22 17 C14.74 17 7.48 17 0 17 C0 11.39 0 5.78 0 0 Z M2 2 C2 6.29 2 10.58 2 15 C7.94 15 13.88 15 20 15 C20 10.71 20 6.42 20 2 C14.06 2 8.12 2 2 2 Z " fill="#2A2A87" transform="translate(39,154)"/>
<path d="M0 0 C7.59 0 15.18 0 23 0 C23 5.61 23 11.22 23 17 C15.41 17 7.82 17 0 17 C0 11.39 0 5.78 0 0 Z M2 2 C2 6.29 2 10.58 2 15 C8.6 15 15.2 15 22 15 C22 10.71 22 6.42 22 2 C15.4 2 8.8 2 2 2 Z " fill="#393990" transform="translate(95,154)"/>
<path d="M0 0 C7.26 0 14.52 0 22 0 C22 5.61 22 11.22 22 17 C14.74 17 7.48 17 0 17 C0 11.39 0 5.78 0 0 Z M1 2 C1 6.29 1 10.58 1 15 C7.27 15 13.54 15 20 15 C20 10.71 20 6.42 20 2 C13.73 2 7.46 2 1 2 Z " fill="#37378C" transform="translate(39,31)"/>
<path d="M0 0 C1.64644273 2.99987447 2.49305372 5.79637724 3.25 9.125 C5.15352772 16.35260781 8.68615431 22.2115193 13.4375 27.9375 C13.953125 28.618125 14.46875 29.29875 15 30 C14.67 30.99 14.34 31.98 14 33 C13.34 33 12.68 33 12 33 C10.41799612 30.86264371 8.97463534 28.74628173 7.5625 26.5 C7.15652588 25.85506592 6.75055176 25.21013184 6.33227539 24.5456543 C1.21885491 16.2744651 -0.48796778 9.83164706 0 0 Z " fill="#232384" transform="translate(3,158)"/>
<path d="M0 0 C7.26 0 14.52 0 22 0 C22 0.33 22 0.66 22 1 C15.4 1 8.8 1 2 1 C2 5.29 2 9.58 2 14 C8.6 14 15.2 14 22 14 C22 14.66 22 15.32 22 16 C14.74 16 7.48 16 0 16 C0 10.72 0 5.44 0 0 Z " fill="#15157B" transform="translate(124,155)"/>
<path d="M0 0 C0.33 0.66 0.66 1.32 1 2 C1.66 2 2.32 2 3 2 C4.26264601 6.29299643 3.62950412 8.87831311 2 13 C3.65 13 5.3 13 7 13 C6.01 15.64 5.02 18.28 4 21 C2.68 20.67 1.36 20.34 0 20 C-1.17544359 16.28709089 -1.13308799 12.74914744 -1.125 8.875 C-1.12757812 7.63492187 -1.13015625 6.39484375 -1.1328125 5.1171875 C-1 2 -1 2 0 0 Z " fill="#FFEBDE" transform="translate(76,12)"/>
<path d="M0 0 C0.33 0.66 0.66 1.32 1 2 C5.62 2 10.24 2 15 2 C15.33 3.32 15.66 4.64 16 6 C12.16275828 6.90413673 8.62497726 7.10576898 4.6875 7.0625 C3.61886719 7.05347656 2.55023438 7.04445313 1.44921875 7.03515625 C0.64097656 7.02355469 -0.16726562 7.01195312 -1 7 C-0.67 4.69 -0.34 2.38 0 0 Z " fill="#FFEFE4" transform="translate(97,19)"/>
<path d="M0 0 C2.28009752 3.42014628 2.09783812 4.86133604 1.48046875 8.8125 C0.30373698 14.16997796 -1.67286938 19.60818759 -5 24 C-7.1875 24.8125 -7.1875 24.8125 -9 25 C-8.5875 24.05125 -8.175 23.1025 -7.75 22.125 C-7.16431515 20.75099999 -6.5812542 19.3758802 -6 18 C-5.49533203 16.80697266 -5.49533203 16.80697266 -4.98046875 15.58984375 C-2.85513512 10.43969072 -1.20880376 5.4396169 0 0 Z " fill="#1C1C7E" transform="translate(182,158)"/>
<path d="M0 0 C2.0625 0.4375 2.0625 0.4375 4 1 C3.979375 1.804375 3.95875 2.60875 3.9375 3.4375 C3.70366379 5.93354885 3.70366379 5.93354885 5 7 C5.33 6.01 5.66 5.02 6 4 C6 5.32 6 6.64 6 8 C1.38 8 -3.24 8 -8 8 C-7.67 7.34 -7.34 6.68 -7 6 C-4.03 6.495 -4.03 6.495 -1 7 C-1.020625 6.030625 -1.04125 5.06125 -1.0625 4.0625 C-1 1 -1 1 0 0 Z " fill="#FF822D" transform="translate(108,41)"/>
<path d="M0 0 C5.26386487 -0.65798311 7.92096166 0.88405129 12.0703125 3.80859375 C14.05739661 5.03543718 15.72021535 5.55924163 18 6 C18 6.66 18 7.32 18 8 C10.25 7.25 10.25 7.25 8 5 C7.67 4.34 7.34 3.68 7 3 C6.34 3 5.68 3 5 3 C4.67 3.66 4.34 4.32 4 5 C4 4.34 4 3.68 4 3 C2.68 2.67 1.36 2.34 0 2 C0 1.34 0 0.68 0 0 Z " fill="#FF8030" transform="translate(100,11)"/>
<path d="M0 0 C0.66 0.33 1.32 0.66 2 1 C-1.6438956 5.63768531 -6.63094897 7.07369925 -12 9 C-12 8.34 -12 7.68 -12 7 C-13.32 6.67 -14.64 6.34 -16 6 C-15.26394531 5.73445312 -14.52789062 5.46890625 -13.76953125 5.1953125 C-12.79371094 4.84210938 -11.81789063 4.48890625 -10.8125 4.125 C-9.84957031 3.77695313 -8.88664062 3.42890625 -7.89453125 3.0703125 C-5.99635158 2.3684215 -4.11649866 1.61433465 -2.26171875 0.8046875 C-1.51535156 0.53914062 -0.76898438 0.27359375 0 0 Z " fill="#252582" transform="translate(106,223)"/>
<path d="M0 0 C2.78373578 0.35704437 3.8127964 0.78832254 5.703125 2.92578125 C6.21359375 3.71339844 6.7240625 4.50101563 7.25 5.3125 C8.03117188 6.48232422 8.03117188 6.48232422 8.828125 7.67578125 C10 10 10 10 10 14 C9.34 14 8.68 14 8 14 C6.55036041 12.09625645 5.18815677 10.12532841 3.875 8.125 C2.78832031 6.48917969 2.78832031 6.48917969 1.6796875 4.8203125 C0 2 0 2 0 0 Z " fill="#191980" transform="translate(7,177)"/>
<path d="M0 0 C3.85923803 0.47987023 6.88128778 1.77826965 10.3125 3.5625 C11.19550781 4.01753906 12.07851563 4.47257813 12.98828125 4.94140625 C13.65214844 5.29074219 14.31601562 5.64007813 15 6 C14.67 6.99 14.34 7.98 14 9 C12.06126858 8.04416032 10.1240567 7.08523808 8.1875 6.125 C7.10855469 5.59132812 6.02960937 5.05765625 4.91796875 4.5078125 C2 3 2 3 -1 1 C-0.67 0.67 -0.34 0.34 0 0 Z " fill="#080874" transform="translate(47,210)"/>
<path d="M0 0 C0.66 0.33 1.32 0.66 2 1 C0.25194156 5.25809108 -1.91268904 6.42315316 -5.95703125 8.31640625 C-8.60472672 9.20234642 -10.40358984 8.97365381 -13 8 C-9.55378451 4.55378451 -4.74246236 2.94849247 0 2 C0 1.34 0 0.68 0 0 Z " fill="#1E1E81" transform="translate(156,199)"/>
<path d="M0 0 C3.66172475 0.62678171 6.8818995 1.64451846 10.3125 3.0625 C11.19550781 3.42472656 12.07851562 3.78695312 12.98828125 4.16015625 C13.65214844 4.43730469 14.31601563 4.71445313 15 5 C15 5.66 15 6.32 15 7 C9.03435204 6.49228528 4.36190101 4.61407872 -1 2 C-0.67 1.34 -0.34 0.68 0 0 Z " fill="#080877" transform="translate(79,225)"/>
<path d="M0 0 C0 0.66 0 1.32 0 2 C2.31 2.33 4.62 2.66 7 3 C3.93312991 3.93826619 1.54992204 4.01788333 -1.625 3.625 C-2.40101562 3.53476562 -3.17703125 3.44453125 -3.9765625 3.3515625 C-6 3 -6 3 -8 2 C-8 1.01 -8 0.02 -8 -1 C-4.37673261 -2.2077558 -3.35853631 -1.54311128 0 0 Z " fill="#FFE4D1" transform="translate(110,16)"/>
<path d="M0 0 C1.44096586 0.42594588 2.87768712 0.86626633 4.3125 1.3125 C5.11300781 1.55613281 5.91351563 1.79976562 6.73828125 2.05078125 C9.09964573 3.04182023 10.33879993 4.08074943 12 6 C8.35839192 7.21386936 7.66834531 6.6674695 4.3125 5.0625 C3.50425781 4.68222656 2.69601563 4.30195313 1.86328125 3.91015625 C1.24839844 3.60980469 0.63351563 3.30945313 0 3 C0 2.01 0 1.02 0 0 Z " fill="#18187D" transform="translate(36,204)"/>
<path d="M0 0 C1.66666667 0 3.33333333 0 5 0 C4.67 4.62 4.34 9.24 4 14 C3.67 14 3.34 14 3 14 C3 11.03 3 8.06 3 5 C2.34 5 1.68 5 1 5 C0.34 5.66 -0.32 6.32 -1 7 C-0.67 4.69 -0.34 2.38 0 0 Z " fill="#FF9042" transform="translate(14,82)"/>
<path d="M0 0 C3.99881788 0.61520275 6.80358226 2.60268669 10 5 C10 5.66 10 6.32 10 7 C6.00118212 6.38479725 3.19641774 4.39731331 0 2 C0 1.34 0 0.68 0 0 Z " fill="#060675" transform="translate(26,199)"/>
<path d="M0 0 C6.4 -0.36923077 6.4 -0.36923077 9.4375 1.5 C9.953125 1.995 10.46875 2.49 11 3 C10.34 3 9.68 3 9 3 C9 3.99 9 4.98 9 6 C9.66 6.33 10.32 6.66 11 7 C10.01 7 9.02 7 8 7 C8 6.34 8 5.68 8 5 C7.34 5 6.68 5 6 5 C6 4.01 6 3.02 6 2 C4.35 2.33 2.7 2.66 1 3 C0.67 2.01 0.34 1.02 0 0 Z " fill="#FF9A56" transform="translate(93,12)"/>
<path d="M0 0 C0.66 1.32 1.32 2.64 2 4 C2.99 4.66 3.98 5.32 5 6 C4.67 7.32 4.34 8.64 4 10 C2.68 9.67 1.36 9.34 0 9 C0 6.03 0 3.06 0 0 Z " fill="#FF8B41" transform="translate(71,35)"/>
<path d="M0 0 C0.33 0.66 0.66 1.32 1 2 C0.19152271 3.16945792 -0.62189112 4.33550461 -1.4375 5.5 C-1.88996094 6.1496875 -2.34242188 6.799375 -2.80859375 7.46875 C-3.20175781 7.9740625 -3.59492188 8.479375 -4 9 C-4.33 9 -4.66 9 -5 9 C-5.20086443 5.28400809 -5.1519437 4.22791555 -3 1 C-2.01 0.67 -1.02 0.34 0 0 Z " fill="#0B0B66" transform="translate(175,182)"/>
<path d="M0 0 C1.0725 0.103125 2.145 0.20625 3.25 0.3125 C1.02174356 2.54075644 -0.40761628 3.00489369 -3.375 3.9375 C-4.19226563 4.19789063 -5.00953125 4.45828125 -5.8515625 4.7265625 C-6.47804688 4.91992188 -7.10453125 5.11328125 -7.75 5.3125 C-5.36605526 1.49818842 -4.61542062 0.38461838 0 0 Z " fill="#080878" transform="translate(113.75,220.6875)"/>
<path d="M0 0 C0.66 0 1.32 0 2 0 C1.67 2.97 1.34 5.94 1 9 C0.01 9 -0.98 9 -2 9 C-2.20140476 5.37471432 -1.85776765 3.13498292 0 0 Z " fill="#FF812A" transform="translate(74,10)"/>
<path d="M0 0 C0.99 0.33 1.98 0.66 3 1 C2.67 2.65 2.34 4.3 2 6 C1.01 6 0.02 6 -1 6 C-1.042721 4.33388095 -1.04063832 2.66617115 -1 1 C-0.67 0.67 -0.34 0.34 0 0 Z " fill="#FFD9C0" transform="translate(108,41)"/>
<path d="M0 0 C0 0.66 0 1.32 0 2 C-1.65 2.66 -3.3 3.32 -5 4 C-5 3.34 -5 2.68 -5 2 C-6.32 1.67 -7.64 1.34 -9 1 C-5.92677456 0.08941469 -3.19902639 -0.08886184 0 0 Z " fill="#2C2C8D" transform="translate(99,228)"/>
<path d="M0 0 C0.66 0.33 1.32 0.66 2 1 C0.3125 3.0625 0.3125 3.0625 -2 5 C-4.75 4.75 -4.75 4.75 -7 4 C-4.66603411 2.44402274 -2.57343171 1.07918104 0 0 Z " fill="#242485" transform="translate(134,210)"/>
<path d="M0 0 C0.33 0 0.66 0 1 0 C1 1.65 1 3.3 1 5 C-0.98 5.66 -2.96 6.32 -5 7 C-4.19152271 5.83054208 -3.37810888 4.66449539 -2.5625 3.5 C-2.11003906 2.8503125 -1.65757812 2.200625 -1.19140625 1.53125 C-0.79824219 1.0259375 -0.40507812 0.520625 0 0 Z " fill="#1F1F82" transform="translate(169,187)"/>
<path d="M0 0 C1.98 0 3.96 0 6 0 C6.33 0.66 6.66 1.32 7 2 C6.34 2 5.68 2 5 2 C4.67 2.99 4.34 3.98 4 5 C4 4.34 4 3.68 4 3 C2.68 2.67 1.36 2.34 0 2 C0 1.34 0 0.68 0 0 Z " fill="#FF7311" transform="translate(100,11)"/>
<path d="M0 0 C2.1519437 3.22791555 2.20086443 4.28400809 2 8 C1.01 8 0.02 8 -1 8 C-0.67 5.36 -0.34 2.72 0 0 Z " fill="#292989" transform="translate(182,158)"/>
<path d="M0 0 C0 0.66 0 1.32 0 2 C-2.64 2.66 -5.28 3.32 -8 4 C-7.67 3.01 -7.34 2.02 -7 1 C-4.53721199 -0.231394 -2.7204945 -0.07159196 0 0 Z " fill="#FF8432" transform="translate(25,75)"/>
</g>
</svg>
